# xmcd
#
# Track frame offsets:
#	150
#	33336
#	56683
#	73998
#	90564
#	117012
#	142079
#	162767
#	187321
#
# Disc length: 2762 seconds
#
# Revision: 0
# Processed by: cddbd v1.5.2PL0 Copyright (c) Steve Scherf et al.
# Submitted via: EasyCDDAExtractor 16.0.9.1
#
DISCID=820ac809
DTITLE=Sade - N-061- Sade  Love Deluxe
DYEAR=1900
DGENRE=
TTITLE0=No Ordinary Love
TTITLE1=Feel No Pain
TTITLE2=I Couldn't Love You More
TTITLE3=Like A Tattoo
TTITLE4=Kiss Of Life
TTITLE5=Cherish The Day
TTITLE6=Pearls
TTITLE7=Bullet Proof Soul
TTITLE8=Mermaid
EXTD=
EXTT0=
EXTT1=
EXTT2=
EXTT3=
EXTT4=
EXTT5=
EXTT6=
EXTT7=
EXTT8=
PLAYORDER=
